<?xml version="1.0" encoding="UTF-8"?>
<svg xmlns="http://www.w3.org/2000/svg" viewBox="0 0 736 736" width="736" height="736">
<path d="M350.59 47.45C391.79 45.18 433.06 50.68 471.8 64.58C504.93 76.47 535.37 93.67 562.92 115.58C671.14 201.62 710.82 358.3 659.56 486.14C653.05 502.38 644.48 517.16 635.64 532.15C604.25 585.39 556.33 626.55 501.22 653.67C466 671 426.64 680.76 387.5 683.19C345.54 685.78 302.54 679.3 263.37 664.19C244.73 656.99 227.15 648.5 209.8 638.66C199.03 632.55 188.94 624.95 179.1 617.44C116.87 569.98 71.15 499.05 57.87 421.5C45.92 351.74 58.63 281.54 90.55 219.08C98.2 204.12 107.13 189.33 117.58 176.13C134.81 154.37 152.54 133.29 174.49 116.01C202.67 93.8 234.17 76.45 267.93 64.42C294.21 55.07 322.67 48.99 350.59 47.45ZM213.36 187.15C209.74 190.07 206.12 192.99 202.5 195.91C201.15 194.03 201.51 192.55 201.5 190.13C197.18 191.87 195.91 198.5 192.5 201.89C191.5 200.21 190.5 198.54 189.5 196.86C188.5 200.76 187.5 204.67 186.5 208.57C185.25 207.61 184.01 206.64 182.76 205.68C182.76 208.62 182.76 211.56 182.76 214.5C181.34 213.76 179.92 213.02 178.5 212.28C178.99 217.55 181.61 215.94 177.46 220.5C178.89 221.83 180.31 223.17 181.74 224.5C180.66 226.17 179.58 227.83 178.5 229.5C183.1 230.12 182.74 231.15 183.12 235.5C188.2 233 186.59 237.92 190.06 241.01C190.06 239.51 190.06 238 190.06 236.5C199.06 242.08 195.35 246.76 196.61 255.5C199.13 257.17 203.73 258.48 205.04 259.47C205.8 260.06 206.06 261.14 206.72 261.84C209.95 265.21 211.77 266.93 214.5 270.88C221.61 271.78 225.16 265.06 230.5 261.43C237.34 263.58 248.1 266.09 252.78 271.5C251.35 275.03 246.22 279.7 242.6 281.24C239.59 282.52 235.71 282.37 232.5 282.86C225.23 283.96 217.91 285.12 210.67 286.5C219.58 288.32 229.4 287.65 238.5 287.93C261.21 288.63 283.79 287.64 306.5 286.69C318.84 286.18 332.14 284.24 344.36 286.5C328.47 288.5 312.59 290.5 296.7 292.5C300.24 294.36 304.51 293.76 308.5 293.93C317.02 294.28 325.62 293.84 334.01 295.5C318.14 296.76 302.41 299.32 286.5 300.35C279.06 300.83 269.23 300.2 263.51 305.5C270.17 316.35 276.84 327.2 283.5 338.05C289.84 338.59 296.16 338.05 302.5 337.82C305.26 337.72 308.61 338.47 311.27 337.69C312.85 337.22 313.88 335.61 315.01 334.52C319.36 330.29 321.95 327.49 319.23 321.3C317.78 317.98 315.87 315.41 313.77 312.5C317.87 313.31 320.95 315.98 324.73 317.74C329.46 319.94 337.66 322.93 341.55 325.94C346.29 329.62 349.16 336.06 355.5 336.66C365.21 330.65 374.33 323.61 383.91 317.39C389.32 313.88 396.83 307.01 403.1 305.58C406.87 304.71 411.69 308.94 414.98 310.49C421.79 313.71 436.47 318.06 438.08 326.51C438.72 329.87 437.35 333.17 437.07 336.5C442.27 341.34 450.23 346.01 457.5 346.18C463.85 346.33 468.91 340.41 466.42 334.03C465.68 332.14 457.52 324.77 455.55 322.95C447.48 315.48 440.07 306.93 432.72 298.76C429.62 295.31 425.39 291.94 424.03 287.5C429.95 279.3 437.78 269.49 448.5 268.29C448.62 275.34 440.62 281.77 441.5 288.68C450.81 282.3 464.05 264.78 465.14 253.5C459.41 249.92 451.73 249.09 445.25 247.4C429.66 243.32 413.64 241.05 397.51 243.2C390.22 244.17 382.84 247.58 375.5 247.8C370.43 247.95 365.49 246.71 360.5 246.13C349.96 244.91 339.37 243.49 328.81 242.5C341.32 241.5 353.83 240.5 366.33 239.5C358.8 237.57 349.48 238.4 342.69 234.5C363.33 228.4 385.72 227.56 406.95 224.5C403.71 222.36 398.44 223.05 394.5 223.11C386.17 223.24 377.83 223.22 369.5 223.37C349.84 223.73 330.17 223.61 310.5 223.8C303.44 223.87 289.99 222.67 283.69 224.28C278.4 225.62 269.58 231 264.5 233.68C260.24 231.29 255.98 228.89 251.72 226.5C253.03 225.5 254.34 224.5 255.65 223.5C253.77 222.5 251.9 221.5 250.02 220.5C251.49 217.56 254.5 216.49 257.16 214.5C254.6 213.17 252.04 211.83 249.48 210.5C250.7 209.5 251.93 208.5 253.15 207.5C251.34 206.83 249.54 206.17 247.73 205.5C249.13 204.17 250.53 202.83 251.93 201.5C249.29 199.09 245.77 200.29 242.3 199.5C244.9 197.37 245.97 197.04 245.53 193.5C241.44 194.17 237.35 194.83 233.26 195.5C234.37 193.5 235.48 191.5 236.59 189.5C232.35 190.5 228.12 191.5 223.88 192.5C224.73 190.83 225.57 189.17 226.42 187.5C221.51 187.34 217.96 191.06 213.36 192.5C213.36 190.72 213.36 188.93 213.36 187.15ZM397.88 324.5C389.51 323.14 386.89 326.9 380.3 330.84C370.21 336.87 360.41 343.59 350.68 350.2C344.58 354.35 339.69 359.94 331.89 357.5C335.66 353.5 339.43 349.5 343.19 345.5C338.63 339.81 334.06 334.12 329.5 328.43C321.5 331.55 315.2 340.44 311.17 347.69C309.47 350.76 308.2 354.07 305.69 356.5C293.61 356.55 281.63 354.92 269.5 355.38C253.46 355.99 238.26 359.24 223.36 364.83C214.54 368.14 202.67 372.22 197.22 380.5C201.16 391.59 208.48 401.71 210.13 413.5C205.32 420.15 195.48 419.29 187.96 420.48C176.84 422.25 165.66 423.74 154.5 425.25C145.42 426.47 135.49 427.08 126.89 429.91C181.2 429.91 235.52 429.91 289.83 429.91C277.09 432.11 264.34 434.3 251.6 436.5C264.26 439.42 277.48 437.1 290.14 439.5C266.59 441.47 243.05 443.44 219.5 445.41C218.48 454.87 222.21 466.79 226.17 475.31C227.38 477.91 228.86 481.5 231.39 483.11C234.94 485.37 243.19 485.46 247.45 486.23C252.76 487.18 258.21 487.91 263.48 489.05C268.51 490.13 273.45 491.97 278.5 492.86C280.83 487.65 283.17 482.44 285.5 477.23C292.21 478.46 297.32 488.11 300.79 493.7C304.54 499.73 312.42 509.69 314.63 515.81C318.11 525.41 318.31 536.24 319.88 546.25C322.12 546.25 324.36 546.25 326.6 546.25C329.05 542.8 329.08 536.86 330.01 532.5C330.95 528.13 332 523.72 332.55 519.27C333.19 514.05 332.98 508.67 333.96 503.5C334.5 500.63 336.25 498.29 336.6 495.3C337.1 491.11 335.46 487.02 332.31 484.18C328.25 480.5 321.89 481.96 316.94 481.5C313.8 478.28 311.94 473.98 309.03 470.51C305.02 465.74 300.28 461.97 295.8 457.7C292.65 454.69 289.26 452.95 290.5 448.25C296.64 447.99 307.91 453.73 313.15 457.35C315.82 459.19 317.7 462.02 320.5 463.52C321.25 459.67 321.34 456.28 323.5 452.91C326.38 457.37 322.81 464.45 325.81 469.5C333.2 469.57 348.77 457.07 354.27 451.79C356.24 449.91 357.88 447.09 360.21 445.69C362.39 444.38 365.14 444.02 367.52 443.14C374.37 440.61 381.22 438.03 388.06 435.5C398 431.81 410.31 425.03 420.5 423.29C405 435.02 389.5 446.76 374 458.5C376.53 466.63 389.28 475.33 395.95 480.58C401.99 485.33 408.61 490 414.04 495.45C416.46 497.89 421.67 503.58 424.68 504.8C428.78 506.46 434.14 506.1 438.49 507C450.06 509.41 461.37 512.36 472.08 517.46C482.22 522.28 491.41 529.45 500.26 536.26C504.37 539.42 508.83 543.79 513.5 545.88C517.64 542.46 520.54 537.64 524.29 533.78C531.14 526.74 537.7 520.02 545.23 513.68C549.25 510.3 554.96 505.09 560.5 504.87C563.6 504.75 572.07 511.28 575.24 513.26C582.36 517.71 589.92 521.22 597.29 525.22C599.03 526.16 601.18 526.67 602.8 527.72C604.53 528.84 605.77 530.8 607.5 532.03C612.52 531.51 614.32 529.47 614.79 524.5C612.32 521.95 609.02 521.34 606.19 519.32C601.69 516.1 592.11 508.82 588.48 505.02C586.89 503.35 585.81 500.98 584.38 499.14C577.56 490.36 573.59 483.7 562.97 479.5C561.44 464.67 555.58 464.12 546.68 454.5C567.79 453.5 588.9 452.5 610.01 451.5C607.67 450.98 605.49 449.99 603.19 449.46C593.84 447.28 583.98 446.6 574.5 445.09C570.69 444.48 562.72 444.77 559.64 442.96C557.47 441.68 556.42 438.49 555.06 436.47C551.96 431.88 548.41 427.57 545.5 422.85C529.83 422.85 514.17 422.85 498.5 422.85C498.54 427.4 503.85 439.88 506.73 443.78C509.28 447.23 519.62 454.86 523.49 458.01C527.33 461.13 533.91 465.09 535.5 469.72C528.4 465.7 522.61 459.32 516.04 454.45C512.32 451.7 506.85 449.08 503.97 445.47C500.25 440.8 496.61 430.13 493.5 424.33C485.03 420.25 472.33 424.85 463.66 420.89C457.24 417.97 446.09 408.17 439.91 403.58C437.46 401.77 434.88 398.67 432.07 397.49C427.97 395.78 410.92 394.76 405.5 394.23C391.8 392.9 378.2 391.07 364.5 389.86C359.78 389.45 351.38 390.1 348.17 386.99C361.46 386.99 374.75 386.99 388.03 386.99C381.7 385.15 375.08 384.17 368.37 383.38C366.64 383.18 359.17 383.16 358.24 382.08C357.93 381.7 357.87 381.13 357.5 380.81C428.17 380.81 498.83 380.81 569.5 380.81C561.42 377.71 547.09 377.65 537.75 376.56C512.17 373.58 486.4 372.16 460.79 369.54C453.69 368.82 446.63 368.38 439.5 368.1C436.26 367.97 431.56 368.54 428.61 366.97C425.75 365.44 422.21 358.21 420.13 355.34C413.22 345.82 405.62 332.89 397.88 324.5ZM216.5 389.35C215.8 392.34 213.09 395.28 210.5 396.72C210.47 393.07 213.22 390.58 216.5 389.35ZM383.5 503.9C380.68 505.75 378.67 508.42 376.28 510.81C372.42 514.68 368.4 518.27 364.05 521.56C354.51 528.78 339.19 536.04 333.19 546.5C340.98 549.31 362.26 547.32 371.5 547.23C387.5 547.07 403.5 546.45 419.5 546.41C431.53 546.38 444.23 547.29 456.14 545.5C439.57 543.07 423.12 540.04 406.5 537.94C397.58 536.81 381.82 535.88 374.04 532.5C378.44 525.17 382.83 517.83 387.22 510.5C385.98 508.3 384.74 506.1 383.5 503.9ZM506.5 509.6C509.41 511.46 512.64 513.01 510.65 516.5C509.27 514.2 507.88 511.9 506.5 509.6Z" fill="#151922" fill-rule="evenodd" stroke="#151922" stroke-width="0.25" stroke-linejoin="round"/>
<path d="M496.5 56.7C496.97 57.33 497.13 58.17 497.66 58.76C499.28 60.59 503.15 61.36 505.31 62.19C508.98 63.59 512.17 66.53 515.69 67.97C516.19 68.17 516.78 67.6 517.31 67.74C518.11 67.95 519.76 69.03 520.5 69.51C530.67 76.11 541.13 82.39 551.03 89.47C552.23 90.33 553.77 90.67 554.97 91.53C563.27 97.46 570.74 104.53 578.97 110.53C581.43 112.32 583.14 115.09 585.5 117C595.18 124.86 606.17 135.88 613.53 145.97C614.91 147.86 617.09 149.14 618.47 151.03C623.56 158 629.13 164.75 634.38 171.5C635.6 173.06 636.41 175.26 637.53 176.97C641.89 183.63 646.17 190.33 650.47 197.03C652.05 199.49 652.85 202.62 654.53 204.97C655.03 205.66 655.87 205.92 656.33 206.66C656.74 207.31 656.82 208.58 657.16 209.34C658.59 212.61 660.74 215.48 662.33 218.66C663.18 220.35 663.35 222.6 664.19 224.31C669.5 235.18 674 246.26 677.81 257.69C678.95 261.1 679.98 264.47 681.33 267.66C682.45 270.3 681.94 273.78 683.27 276.31C683.57 276.88 684.42 277.08 684.62 277.69C685.6 280.54 684.95 284.5 686.03 287.47C686.36 288.37 687.36 288.92 687.62 289.69C688.18 291.32 687.67 293.67 688.03 295.47C688.94 300.03 690.24 304.06 690.97 308.53C691.38 311.06 691.43 317.55 692.03 319.47C692.43 320.74 693.59 321.22 693.78 322.53C693.89 323.28 693.03 324.57 693.03 325.47C693.04 326.54 693.8 327.47 693.97 328.53C694.21 330.09 693.59 331.96 694.03 333.47C694.5 335.07 696.01 335.72 696.1 337.5C696.23 340.33 694.01 343.35 695.03 346.47C695.48 347.82 696.68 348.24 697.19 349.53C698.22 352.16 696.37 355.01 696 357.5C695.28 362.31 695.28 371.69 696 376.5C696.37 378.99 698.22 381.84 697.19 384.47C696.68 385.76 695.48 386.18 695.03 387.53C694.16 390.18 696 395.69 695.75 397.47C695.58 398.69 694.62 398.67 694.27 399.69C693.52 401.84 694.31 404.26 693.97 406.47C693.86 407.15 693.2 408.06 693.19 408.69C693.17 409.96 694.29 411.32 694.11 412.47C693.9 413.71 692.44 414.29 692.03 415.53C691.55 417 692.21 418.93 691.97 420.47C691.54 423.19 690.56 425.98 690.19 428.69C690.06 429.58 690.5 430.45 690.3 431.31C690.11 432.13 689.26 432.64 689.03 433.53C688.21 436.73 688.58 442.51 687.63 445.31C687.42 445.92 686.56 446.11 686.27 446.69C685.16 448.86 685.52 454.49 684.81 456.5C684.18 458.3 682.69 459.65 682.19 461.69C681.75 463.47 681.86 465.65 681.3 467.31C678.13 476.81 673.81 486.19 670.19 495.69C667.31 503.23 663.28 510.19 660.16 517.66C659.02 520.36 657.87 523.88 656.33 526.34C655.3 527.98 653.62 529.34 652.53 531.03C647.68 538.59 643.77 546.7 638.47 553.97C627.13 569.51 615.23 584.27 601.5 598C596.61 602.89 591.91 608.7 586.5 613C580 618.17 573.74 623.64 567.03 628.53C564.65 630.27 562.72 632.67 560.34 634.33C552.51 639.81 543.89 644.99 535.66 650.16C534.19 651.08 532.89 652.56 531.34 653.33C530.27 653.87 529.08 653.74 528.03 654.53C527.35 655.04 527.08 655.87 526.34 656.33C523.18 658.32 519.08 659.45 515.66 661.16C509.08 664.44 502.17 668.95 495.31 671.3C494.17 671.69 494.83 670.98 493.69 671.27C491.61 671.79 486.82 674.71 484.66 675.64C482.82 676.44 480.49 676.22 478.69 677.27C477.86 677.75 477.56 678.61 476.66 679.03C475.43 679.6 473.96 678.99 472.69 679.19C470.56 679.51 469.43 681.25 467.66 681.97C465.93 682.67 463.33 681.75 461.5 682.77C460.75 683.19 460.01 684.35 459.31 684.62C457.49 685.36 450.99 685.38 448.69 686.01C448.09 686.17 447.88 687.02 447.31 687.26C445.63 687.96 442.36 688.66 440.47 688.97C439.25 689.17 437.84 688.68 436.69 689.27C436.11 689.56 435.94 690.47 435.31 690.62C434.23 690.9 433.72 690.2 432.69 690.27C431.65 690.34 422.38 691.99 421.69 692.27C421.27 692.44 420.78 693.19 420.31 693.3C417.62 693.94 414.27 693.28 411.53 694.03C410.28 694.38 409.76 695.35 408.47 695.47C406.98 695.61 404.69 694.21 402.53 695.03C401.34 695.48 400.66 696.93 399.47 697.19C397.71 697.57 395.41 696.07 393.5 696C391.56 695.93 390.28 696.68 388.47 696.97C384.53 697.59 380.34 696.74 376.5 697C375.05 697.1 373.88 698.14 372.5 698.22C370.7 698.32 369.29 697.15 367.5 697C365.67 696.85 364.25 697.84 362.5 697.81C361.67 697.8 360.41 697.12 359.5 697C355.91 696.51 352.11 697.53 348.53 696.97C347.43 696.8 346.57 696.19 345.47 696.03C342.71 695.64 340.08 697.98 337.53 697.19C336.21 696.77 335.87 695.4 334.47 695.03C332.68 694.56 331.17 696.13 329.53 695.88C328.32 695.69 327.68 694.39 326.47 694.03C323.77 693.24 320.36 693.94 317.69 693.3C316.87 693.1 316.37 692.26 315.47 692.03C314.23 691.72 312.8 692.17 311.53 691.97C309.16 691.6 306.7 690.44 304.31 690.27C303.28 690.2 302.77 690.9 301.69 690.63C300.99 690.45 300.34 689.31 299.47 689.03C297.11 688.27 294.16 688.53 291.69 687.81C290.18 687.38 289 686.08 287.47 685.76C284.77 685.2 280.17 685.5 277.69 684.63C276.29 684.13 274.96 682.71 273.31 682.19C271.79 681.71 270.02 682.1 268.69 681.59C267.34 681.07 266.4 679.48 264.31 679.19C263.46 679.07 262.51 679.42 261.69 679.19C258.44 678.25 255.4 675.45 252 674.5C235.08 669.79 211.99 656.16 196.97 646.53C195.03 645.29 192.44 644.58 190.66 643.33C183.41 638.26 176.22 632.72 169.03 627.47C166.18 625.39 163.82 622.61 160.97 620.53C151.67 613.74 143.72 605.22 135.5 597C131.32 592.82 126.01 588.73 122.53 583.97C119.44 579.73 115.62 576.2 112.53 571.97C106.74 564.03 100.27 556.35 94.67 548.34C91.37 543.63 88.65 537.99 85.47 533.03C84.65 531.76 83.41 530.67 82.67 529.34C79.41 523.54 76.19 517.41 73.16 511.34C71.97 508.97 70.74 504.42 68.76 502.66C68.17 502.13 67.33 501.97 66.7 501.5C67.26 498.53 67.67 502.17 67.65 499.69C67.64 498.66 63.51 490.57 63 487.5C62.34 486.51 61.12 485.41 60.7 484.31C59.93 482.3 59.95 479.71 58.73 477.69C58.4 477.14 57.59 476.92 57.38 476.31C56.82 474.73 56.45 469.98 55.73 467.69C54.68 464.35 52.84 460.73 51.7 457.31C50.61 454.04 50.66 450.07 49.73 446.69C49.58 446.13 48.88 445.86 48.7 445.31C48.04 443.32 48.23 440.8 47.81 438.69C47.52 437.25 47.28 435.02 46.73 433.69C46.6 433.36 45.78 432.7 45.7 432.31C45.51 431.37 46.07 430.49 45.97 429.53C45.69 426.85 44.45 424.14 44.03 421.47C43.59 418.65 43.79 413.03 42.97 410.53C42.43 408.89 41.13 408.25 40.7 406.5C39.72 402.53 41.62 397.66 40.97 393.53C39.29 382.82 40 371.48 40 360.5C40 355.69 39.29 350.27 40.03 345.53C40.42 343.06 41.12 341.14 41 338.5C40.87 335.54 39.71 330.35 40.81 327.53C41.21 326.51 42.33 326.24 42.73 325.31C43.46 323.64 43.67 320.35 43.97 318.47C44.3 316.34 44.65 313.39 44.73 311.31C44.77 310.27 43.98 309.63 44.22 308.53C44.38 307.78 46.44 304.22 46.81 302.31C47.12 300.72 46.78 299.11 47.03 297.53C48.05 291.05 50.68 281.43 52.97 275.47C53.9 273.04 53.58 269.95 54.38 267.69C54.86 266.31 56.27 264.93 56.81 263.31C58.19 259.17 58.9 254.75 60.67 250.66C62.64 246.09 64.67 241.68 66.5 237C67.29 234.97 69.65 232.28 69.42 230C69.36 229.45 68.82 229.04 68.7 228.5C72.44 225.69 74.01 220.95 76.16 216.66C78.48 212 81.1 207.71 83.84 203.34C85.72 200.35 86.72 196.45 88.67 193.66C95.97 183.21 102.98 172.38 110.53 162.03C117.62 152.31 126.46 143.79 134 134.5C138.13 129.4 143.7 125.33 148.31 120.81C152.45 116.76 156.96 112.69 161.5 109C163.04 107.75 164.08 105.8 165.66 104.67C175.79 97.43 186.37 89.86 196.66 82.67C203.13 78.14 211.53 75.12 218.34 70.84C220.42 69.54 222.47 67.76 224.66 66.67C229.09 64.45 233.46 63.75 236.5 59.7C237.39 59.96 238.04 60.46 239 60.42C241.9 60.29 245.32 57.55 248 56.5C252.55 54.72 257.12 52.93 261.69 51.19C266.45 49.37 271.49 48.25 276.31 46.73C278.61 46.01 281.13 44.72 283.69 44.19C286.1 43.69 289.06 43.82 291.31 42.73C292.21 42.3 292.54 41.3 293.5 40.86C295.44 39.98 301.49 40.98 304.31 39.73C305.25 39.31 305.49 38.19 306.53 37.81C308.63 37.05 311.22 38.6 313.47 37.97C314.29 37.74 314.94 36.84 315.69 36.7C317.81 36.29 320.15 37.67 322.31 36.73C323.26 36.32 323.46 35.16 324.53 34.81C326.12 34.3 327.49 35.35 329 35.42C332.18 35.56 335.46 34.51 338.53 34.03C341.61 33.55 345.52 34.94 348.47 33.97C349.82 33.52 350.24 32.32 351.53 31.81C353.62 30.99 357.26 31.7 359.5 31.7C365.5 31.7 371.5 31.7 377.5 31.7C380.55 31.7 385.64 30.7 388.47 31.81C389.76 32.32 390.18 33.52 391.53 33.97C394.69 35.01 399.18 33.7 402.5 34C403.97 34.13 405.11 34.77 406.53 34.97C408.15 35.2 409.75 34.5 411.31 34.7C412.63 34.87 411.37 35.33 412.69 35.33C413.66 35.32 414.46 34.55 415.5 34.7C417.35 34.97 417.86 36.42 419.53 36.97C421.38 37.58 423.51 36.35 425.31 36.7C426.13 36.86 426.61 37.78 427.53 37.97C429.21 38.32 431.86 37.04 433.47 37.81C434.84 38.47 435.07 39.84 436.53 40.32C437.25 40.56 438.65 39.95 439.47 40.03C441.38 40.21 443.13 41.37 445.15 41.33C445.84 41.32 446.81 40.64 447.47 40.87C448.6 41.28 448.7 42.47 449.69 42.94C451.44 43.78 454.36 43.71 456.31 44.19C458.81 44.8 461.19 46.2 463.69 46.81C468.82 48.08 474.04 49.56 479 51.5C482.01 52.68 485.42 53.4 488.34 54.67C489.97 55.37 492.09 57.33 494 57.42C494.96 57.46 495.61 56.96 496.5 56.7ZM350.59 47.45C322.67 48.99 294.21 55.07 267.93 64.42C234.17 76.45 202.67 93.8 174.49 116.01C152.54 133.29 134.81 154.37 117.58 176.13C107.13 189.33 98.2 204.12 90.55 219.08C58.63 281.54 45.92 351.74 57.87 421.5C71.15 499.05 116.87 569.98 179.1 617.44C188.94 624.95 199.03 632.55 209.8 638.66C227.15 648.5 244.73 656.99 263.37 664.19C302.54 679.3 345.54 685.78 387.5 683.19C426.64 680.76 466 671 501.22 653.67C556.33 626.55 604.25 585.39 635.64 532.15C644.48 517.16 653.05 502.38 659.56 486.14C710.82 358.3 671.14 201.62 562.92 115.58C535.37 93.67 504.93 76.47 471.8 64.58C433.06 50.68 391.79 45.18 350.59 47.45ZM213.36 187.15C213.36 188.93 213.36 190.72 213.36 192.5C217.96 191.06 221.51 187.34 226.42 187.5C225.57 189.17 224.73 190.83 223.88 192.5C228.12 191.5 232.35 190.5 236.59 189.5C235.48 191.5 234.37 193.5 233.26 195.5C237.35 194.83 241.44 194.17 245.53 193.5C245.97 197.04 244.9 197.37 242.3 199.5C245.77 200.29 249.29 199.09 251.93 201.5C250.53 202.83 249.13 204.17 247.73 205.5C249.54 206.17 251.34 206.83 253.15 207.5C251.93 208.5 250.7 209.5 249.48 210.5C252.04 211.83 254.6 213.17 257.16 214.5C254.5 216.49 251.49 217.56 250.02 220.5C251.9 221.5 253.77 222.5 255.65 223.5C254.34 224.5 253.03 225.5 251.72 226.5C255.98 228.89 260.24 231.29 264.5 233.68C269.58 231 278.4 225.62 283.69 224.28C289.99 222.67 303.44 223.87 310.5 223.8C330.17 223.61 349.84 223.73 369.5 223.37C377.83 223.22 386.17 223.24 394.5 223.11C398.44 223.05 403.71 222.36 406.95 224.5C385.72 227.56 363.33 228.4 342.69 234.5C349.48 238.4 358.8 237.57 366.33 239.5C353.83 240.5 341.32 241.5 328.81 242.5C339.37 243.49 349.96 244.91 360.5 246.13C365.49 246.71 370.43 247.95 375.5 247.8C382.84 247.58 390.22 244.17 397.51 243.2C413.64 241.05 429.66 243.32 445.25 247.4C451.73 249.09 459.41 249.92 465.14 253.5C464.05 264.78 450.81 282.3 441.5 288.68C440.62 281.77 448.62 275.34 448.5 268.29C437.78 269.49 429.95 279.3 424.03 287.5C425.39 291.94 429.62 295.31 432.72 298.76C440.07 306.93 447.48 315.48 455.55 322.95C457.52 324.77 465.68 332.14 466.42 334.03C468.91 340.41 463.85 346.33 457.5 346.18C450.23 346.01 442.27 341.34 437.07 336.5C437.35 333.17 438.72 329.87 438.08 326.51C436.47 318.06 421.79 313.71 414.98 310.49C411.69 308.94 406.87 304.71 403.1 305.58C396.83 307.01 389.32 313.88 383.91 317.39C374.33 323.61 365.21 330.65 355.5 336.66C349.16 336.06 346.29 329.62 341.55 325.94C337.66 322.93 329.46 319.94 324.73 317.74C320.95 315.98 317.87 313.31 313.77 312.5C315.87 315.41 317.78 317.98 319.23 321.3C321.95 327.49 319.36 330.29 315.01 334.52C313.88 335.61 312.85 337.22 311.27 337.69C308.61 338.47 305.26 337.72 302.5 337.82C296.16 338.05 289.84 338.59 283.5 338.05C276.84 327.2 270.17 316.35 263.51 305.5C269.23 300.2 279.06 300.83 286.5 300.35C302.41 299.32 318.14 296.76 334.01 295.5C325.62 293.84 317.02 294.28 308.5 293.93C304.51 293.76 300.24 294.36 296.7 292.5C312.59 290.5 328.47 288.5 344.36 286.5C332.14 284.24 318.84 286.18 306.5 286.69C283.79 287.64 261.21 288.63 238.5 287.93C229.4 287.65 219.58 288.32 210.67 286.5C217.91 285.12 225.23 283.96 232.5 282.86C235.71 282.37 239.59 282.52 242.6 281.24C246.22 279.7 251.35 275.03 252.78 271.5C248.1 266.09 237.34 263.58 230.5 261.43C225.16 265.06 221.61 271.78 214.5 270.88C211.77 266.93 209.95 265.21 206.72 261.84C206.06 261.14 205.8 260.06 205.04 259.47C203.73 258.48 199.13 257.17 196.61 255.5C195.35 246.76 199.06 242.08 190.06 236.5C190.06 238 190.06 239.51 190.06 241.01C186.59 237.92 188.2 233 183.12 235.5C182.74 231.15 183.1 230.12 178.5 229.5C179.58 227.83 180.66 226.17 181.74 224.5C180.31 223.17 178.89 221.83 177.46 220.5C181.61 215.94 178.99 217.55 178.5 212.28C179.92 213.02 181.34 213.76 182.76 214.5C182.76 211.56 182.76 208.62 182.76 205.68C184.01 206.64 185.25 207.61 186.5 208.57C187.5 204.67 188.5 200.76 189.5 196.86C190.5 198.54 191.5 200.21 192.5 201.89C195.91 198.5 197.18 191.87 201.5 190.13C201.51 192.55 201.15 194.03 202.5 195.91C206.12 192.99 209.74 190.07 213.36 187.15ZM397.88 324.5C405.62 332.89 413.22 345.82 420.13 355.34C422.21 358.21 425.75 365.44 428.61 366.97C431.56 368.54 436.26 367.97 439.5 368.1C446.63 368.38 453.69 368.82 460.79 369.54C486.4 372.16 512.17 373.58 537.75 376.56C547.09 377.65 561.42 377.71 569.5 380.81C498.83 380.81 428.17 380.81 357.5 380.81C357.87 381.13 357.93 381.7 358.24 382.08C359.17 383.16 366.64 383.18 368.37 383.38C375.08 384.17 381.7 385.15 388.03 386.99C374.75 386.99 361.46 386.99 348.17 386.99C351.38 390.1 359.78 389.45 364.5 389.86C378.2 391.07 391.8 392.9 405.5 394.23C410.92 394.76 427.97 395.78 432.07 397.49C434.88 398.67 437.46 401.77 439.91 403.58C446.09 408.17 457.24 417.97 463.66 420.89C472.33 424.85 485.03 420.25 493.5 424.33C496.61 430.13 500.25 440.8 503.97 445.47C506.85 449.08 512.32 451.7 516.04 454.45C522.61 459.32 528.4 465.7 535.5 469.72C533.91 465.09 527.33 461.13 523.49 458.01C519.62 454.86 509.28 447.23 506.73 443.78C503.85 439.88 498.54 427.4 498.5 422.85C514.17 422.85 529.83 422.85 545.5 422.85C548.41 427.57 551.96 431.88 555.06 436.47C556.42 438.49 557.47 441.68 559.64 442.96C562.72 444.77 570.69 444.48 574.5 445.09C583.98 446.6 593.84 447.28 603.19 449.46C605.49 449.99 607.67 450.98 610.01 451.5C588.9 452.5 567.79 453.5 546.68 454.5C555.58 464.12 561.44 464.67 562.97 479.5C573.59 483.7 577.56 490.36 584.38 499.14C585.81 500.98 586.89 503.35 588.48 505.02C592.11 508.82 601.69 516.1 606.19 519.32C609.02 521.34 612.32 521.95 614.79 524.5C614.32 529.47 612.52 531.51 607.5 532.03C605.77 530.8 604.53 528.84 602.8 527.72C601.18 526.67 599.03 526.16 597.29 525.22C589.92 521.22 582.36 517.71 575.24 513.26C572.07 511.28 563.6 504.75 560.5 504.87C554.96 505.09 549.25 510.3 545.23 513.68C537.7 520.02 531.14 526.74 524.29 533.78C520.54 537.64 517.64 542.46 513.5 545.88C508.83 543.79 504.37 539.42 500.26 536.26C491.41 529.45 482.22 522.28 472.08 517.46C461.37 512.36 450.06 509.41 438.49 507C434.14 506.1 428.78 506.46 424.68 504.8C421.67 503.58 416.46 497.89 414.04 495.45C408.61 490 401.99 485.33 395.95 480.58C389.28 475.33 376.53 466.63 374 458.5C389.5 446.76 405 435.02 420.5 423.29C410.31 425.03 398 431.81 388.06 435.5C381.22 438.03 374.37 440.61 367.52 443.14C365.14 444.02 362.39 444.38 360.21 445.69C357.88 447.09 356.24 449.91 354.27 451.79C348.77 457.07 333.2 469.57 325.81 469.5C322.81 464.45 326.38 457.37 323.5 452.91C321.34 456.28 321.25 459.67 320.5 463.52C317.7 462.02 315.82 459.19 313.15 457.35C307.91 453.73 296.64 447.99 290.5 448.25C289.26 452.95 292.65 454.69 295.8 457.7C300.28 461.97 305.02 465.74 309.03 470.51C311.94 473.98 313.8 478.28 316.94 481.5C321.89 481.96 328.25 480.5 332.31 484.18C335.46 487.02 337.1 491.11 336.6 495.3C336.25 498.29 334.5 500.63 333.96 503.5C332.98 508.67 333.19 514.05 332.55 519.27C332 523.72 330.95 528.13 330.01 532.5C329.08 536.86 329.05 542.8 326.6 546.25C324.36 546.25 322.12 546.25 319.88 546.25C318.31 536.24 318.11 525.41 314.63 515.81C312.42 509.69 304.54 499.73 300.79 493.7C297.32 488.11 292.21 478.46 285.5 477.23C283.17 482.44 280.83 487.65 278.5 492.86C273.45 491.97 268.51 490.13 263.48 489.05C258.21 487.91 252.76 487.18 247.45 486.23C243.19 485.46 234.94 485.37 231.39 483.11C228.86 481.5 227.38 477.91 226.17 475.31C222.21 466.79 218.48 454.87 219.5 445.41C243.05 443.44 266.59 441.47 290.14 439.5C277.48 437.1 264.26 439.42 251.6 436.5C264.34 434.3 277.09 432.11 289.83 429.91C235.52 429.91 181.2 429.91 126.89 429.91C135.49 427.08 145.42 426.47 154.5 425.25C165.66 423.74 176.84 422.25 187.96 420.48C195.48 419.29 205.32 420.15 210.13 413.5C208.48 401.71 201.16 391.59 197.22 380.5C202.67 372.22 214.54 368.14 223.36 364.83C238.26 359.24 253.46 355.99 269.5 355.38C281.63 354.92 293.61 356.55 305.69 356.5C308.2 354.07 309.47 350.76 311.17 347.69C315.2 340.44 321.5 331.55 329.5 328.43C334.06 334.12 338.63 339.81 343.19 345.5C339.43 349.5 335.66 353.5 331.89 357.5C339.69 359.94 344.58 354.35 350.68 350.2C360.41 343.59 370.21 336.87 380.3 330.84C386.89 326.9 389.51 323.14 397.88 324.5ZM216.5 389.35C213.22 390.58 210.47 393.07 210.5 396.72C213.09 395.28 215.8 392.34 216.5 389.35ZM383.5 503.9C384.74 506.1 385.98 508.3 387.22 510.5C382.83 517.83 378.44 525.17 374.04 532.5C381.82 535.88 397.58 536.81 406.5 537.94C423.12 540.04 439.57 543.07 456.14 545.5C444.23 547.29 431.53 546.38 419.5 546.41C403.5 546.45 387.5 547.07 371.5 547.23C362.26 547.32 340.98 549.31 333.19 546.5C339.19 536.04 354.51 528.78 364.05 521.56C368.4 518.27 372.42 514.68 376.28 510.81C378.67 508.42 380.68 505.75 383.5 503.9ZM506.5 509.6C507.88 511.9 509.27 514.2 510.65 516.5C512.64 513.01 509.41 511.46 506.5 509.6Z" fill="#fefefe" fill-rule="evenodd" stroke="#fefefe" stroke-width="0.25" stroke-linejoin="round"/>
</svg>